<mxfile host="app.diagrams.net" modified="2021-11-22T06:58:13.699Z" agent="5.0 (Windows NT 10.0; Win64; x64) AppleWebKit/537.36 (KHTML, like Gecko) Chrome/96.0.4664.45 Safari/537.36" etag="IOMXvEueDgxPFb9cPpBJ" version="15.7.4" type="github">
  <diagram id="JknHQXVpuJHzhsMwTUTi" name="Page-1">
    <mxGraphModel dx="1038" dy="588" grid="1" gridSize="10" guides="1" tooltips="1" connect="1" arrows="1" fold="1" page="1" pageScale="1" pageWidth="827" pageHeight="1169" math="0" shadow="0">
      <root>
        <mxCell id="0" />
        <mxCell id="1" parent="0" />
        <mxCell id="ocCC9NBhmW7C8hYpkvTI-3" style="edgeStyle=orthogonalEdgeStyle;rounded=0;orthogonalLoop=1;jettySize=auto;html=1;exitX=0.5;exitY=1;exitDx=0;exitDy=0;entryX=0.5;entryY=0;entryDx=0;entryDy=0;entryPerimeter=0;" parent="1" source="ocCC9NBhmW7C8hYpkvTI-1" target="ocCC9NBhmW7C8hYpkvTI-2" edge="1">
          <mxGeometry relative="1" as="geometry" />
        </mxCell>
        <mxCell id="ocCC9NBhmW7C8hYpkvTI-1" value="获取oc订单报文，订单入库" style="shape=parallelogram;html=1;strokeWidth=2;perimeter=parallelogramPerimeter;whiteSpace=wrap;rounded=1;arcSize=12;size=0.23;" parent="1" vertex="1">
          <mxGeometry x="240" y="70" width="220" height="30" as="geometry" />
        </mxCell>
        <mxCell id="ocCC9NBhmW7C8hYpkvTI-5" style="edgeStyle=orthogonalEdgeStyle;rounded=0;orthogonalLoop=1;jettySize=auto;html=1;exitX=0;exitY=0.5;exitDx=0;exitDy=0;exitPerimeter=0;entryX=0.5;entryY=0;entryDx=0;entryDy=0;" parent="1" source="ocCC9NBhmW7C8hYpkvTI-2" target="ocCC9NBhmW7C8hYpkvTI-4" edge="1">
          <mxGeometry relative="1" as="geometry" />
        </mxCell>
        <mxCell id="ocCC9NBhmW7C8hYpkvTI-6" value="&amp;nbsp;否&amp;nbsp;" style="edgeLabel;html=1;align=center;verticalAlign=middle;resizable=0;points=[];" parent="ocCC9NBhmW7C8hYpkvTI-5" vertex="1" connectable="0">
          <mxGeometry x="0.0218" relative="1" as="geometry">
            <mxPoint as="offset" />
          </mxGeometry>
        </mxCell>
        <mxCell id="pwR67yyNOnzoJk_W2ySI-6" style="edgeStyle=orthogonalEdgeStyle;rounded=0;orthogonalLoop=1;jettySize=auto;html=1;" edge="1" parent="1" source="ocCC9NBhmW7C8hYpkvTI-2" target="pwR67yyNOnzoJk_W2ySI-5">
          <mxGeometry relative="1" as="geometry" />
        </mxCell>
        <mxCell id="pwR67yyNOnzoJk_W2ySI-8" value="&amp;nbsp;是&amp;nbsp;" style="edgeLabel;html=1;align=center;verticalAlign=middle;resizable=0;points=[];" vertex="1" connectable="0" parent="pwR67yyNOnzoJk_W2ySI-6">
          <mxGeometry x="-0.2376" relative="1" as="geometry">
            <mxPoint as="offset" />
          </mxGeometry>
        </mxCell>
        <mxCell id="ocCC9NBhmW7C8hYpkvTI-2" value="订单是否满足platform=5&amp;amp;brand=ph" style="strokeWidth=2;html=1;shape=mxgraph.flowchart.decision;whiteSpace=wrap;" parent="1" vertex="1">
          <mxGeometry x="220" y="150" width="260" height="60" as="geometry" />
        </mxCell>
        <mxCell id="kLJnU4twhRrT2ZxffIng-13" style="edgeStyle=orthogonalEdgeStyle;rounded=0;orthogonalLoop=1;jettySize=auto;html=1;entryX=0;entryY=0.5;entryDx=0;entryDy=0;entryPerimeter=0;" parent="1" source="ocCC9NBhmW7C8hYpkvTI-4" target="ocCC9NBhmW7C8hYpkvTI-29" edge="1">
          <mxGeometry relative="1" as="geometry">
            <Array as="points">
              <mxPoint x="80" y="718" />
            </Array>
          </mxGeometry>
        </mxCell>
        <mxCell id="ocCC9NBhmW7C8hYpkvTI-4" value="原有逻辑" style="rounded=1;whiteSpace=wrap;html=1;absoluteArcSize=1;arcSize=14;strokeWidth=2;" parent="1" vertex="1">
          <mxGeometry x="30" y="229.5" width="100" height="40" as="geometry" />
        </mxCell>
        <mxCell id="ocCC9NBhmW7C8hYpkvTI-13" style="edgeStyle=orthogonalEdgeStyle;rounded=0;orthogonalLoop=1;jettySize=auto;html=1;entryX=0.5;entryY=0;entryDx=0;entryDy=0;entryPerimeter=0;" parent="1" source="ocCC9NBhmW7C8hYpkvTI-8" target="kLJnU4twhRrT2ZxffIng-19" edge="1">
          <mxGeometry relative="1" as="geometry" />
        </mxCell>
        <mxCell id="ocCC9NBhmW7C8hYpkvTI-14" value="&amp;nbsp;退单&amp;nbsp;" style="edgeLabel;html=1;align=center;verticalAlign=middle;resizable=0;points=[];" parent="ocCC9NBhmW7C8hYpkvTI-13" vertex="1" connectable="0">
          <mxGeometry x="0.2277" y="-2" relative="1" as="geometry">
            <mxPoint x="-39" y="-2" as="offset" />
          </mxGeometry>
        </mxCell>
        <mxCell id="ocCC9NBhmW7C8hYpkvTI-17" style="edgeStyle=orthogonalEdgeStyle;rounded=0;orthogonalLoop=1;jettySize=auto;html=1;" parent="1" source="ocCC9NBhmW7C8hYpkvTI-8" target="qtesGFRPvT4OYmqqLOqD-1" edge="1">
          <mxGeometry relative="1" as="geometry" />
        </mxCell>
        <mxCell id="ocCC9NBhmW7C8hYpkvTI-18" value="&amp;nbsp;下单&amp;nbsp;" style="edgeLabel;html=1;align=center;verticalAlign=middle;resizable=0;points=[];" parent="ocCC9NBhmW7C8hYpkvTI-17" vertex="1" connectable="0">
          <mxGeometry x="-0.4679" y="-4" relative="1" as="geometry">
            <mxPoint as="offset" />
          </mxGeometry>
        </mxCell>
        <mxCell id="ocCC9NBhmW7C8hYpkvTI-8" value="&lt;span&gt;判断订单状态&lt;/span&gt;" style="strokeWidth=2;html=1;shape=mxgraph.flowchart.decision;whiteSpace=wrap;" parent="1" vertex="1">
          <mxGeometry x="540" y="240" width="130" height="60" as="geometry" />
        </mxCell>
        <mxCell id="pwR67yyNOnzoJk_W2ySI-3" style="edgeStyle=orthogonalEdgeStyle;rounded=0;orthogonalLoop=1;jettySize=auto;html=1;entryX=0.5;entryY=0;entryDx=0;entryDy=0;" edge="1" parent="1" source="ocCC9NBhmW7C8hYpkvTI-11" target="pwR67yyNOnzoJk_W2ySI-1">
          <mxGeometry relative="1" as="geometry">
            <Array as="points">
              <mxPoint x="690" y="520" />
              <mxPoint x="605" y="520" />
            </Array>
          </mxGeometry>
        </mxCell>
        <mxCell id="ocCC9NBhmW7C8hYpkvTI-11" value="生成审核失败的流水入库" style="rounded=1;whiteSpace=wrap;html=1;absoluteArcSize=1;arcSize=14;strokeWidth=2;" parent="1" vertex="1">
          <mxGeometry x="610" y="370" width="160" height="41" as="geometry" />
        </mxCell>
        <mxCell id="ocCC9NBhmW7C8hYpkvTI-43" style="edgeStyle=orthogonalEdgeStyle;rounded=0;orthogonalLoop=1;jettySize=auto;html=1;entryX=0.5;entryY=0;entryDx=0;entryDy=0;" parent="1" source="ocCC9NBhmW7C8hYpkvTI-16" target="ocCC9NBhmW7C8hYpkvTI-40" edge="1">
          <mxGeometry relative="1" as="geometry">
            <Array as="points">
              <mxPoint x="543" y="401" />
            </Array>
          </mxGeometry>
        </mxCell>
        <mxCell id="ocCC9NBhmW7C8hYpkvTI-44" value="否" style="edgeLabel;html=1;align=center;verticalAlign=middle;resizable=0;points=[];" parent="ocCC9NBhmW7C8hYpkvTI-43" vertex="1" connectable="0">
          <mxGeometry x="-0.1686" relative="1" as="geometry">
            <mxPoint as="offset" />
          </mxGeometry>
        </mxCell>
        <mxCell id="kLJnU4twhRrT2ZxffIng-9" style="edgeStyle=orthogonalEdgeStyle;rounded=0;orthogonalLoop=1;jettySize=auto;html=1;entryX=0.5;entryY=0;entryDx=0;entryDy=0;entryPerimeter=0;" parent="1" source="ocCC9NBhmW7C8hYpkvTI-16" target="ocCC9NBhmW7C8hYpkvTI-39" edge="1">
          <mxGeometry relative="1" as="geometry" />
        </mxCell>
        <mxCell id="kLJnU4twhRrT2ZxffIng-10" value="&amp;nbsp;是&amp;nbsp;" style="edgeLabel;html=1;align=center;verticalAlign=middle;resizable=0;points=[];" parent="kLJnU4twhRrT2ZxffIng-9" vertex="1" connectable="0">
          <mxGeometry x="-0.1761" y="3" relative="1" as="geometry">
            <mxPoint as="offset" />
          </mxGeometry>
        </mxCell>
        <mxCell id="ocCC9NBhmW7C8hYpkvTI-16" value="是否有审核失败的流水" style="strokeWidth=2;html=1;shape=mxgraph.flowchart.decision;whiteSpace=wrap;" parent="1" vertex="1">
          <mxGeometry x="319" y="370" width="150" height="61" as="geometry" />
        </mxCell>
        <mxCell id="ocCC9NBhmW7C8hYpkvTI-28" style="edgeStyle=orthogonalEdgeStyle;rounded=0;orthogonalLoop=1;jettySize=auto;html=1;" parent="1" source="ocCC9NBhmW7C8hYpkvTI-22" target="ocCC9NBhmW7C8hYpkvTI-23" edge="1">
          <mxGeometry relative="1" as="geometry" />
        </mxCell>
        <mxCell id="ocCC9NBhmW7C8hYpkvTI-22" value="mad调用" style="rounded=1;whiteSpace=wrap;html=1;absoluteArcSize=1;arcSize=14;strokeWidth=2;" parent="1" vertex="1">
          <mxGeometry x="354" y="600" width="115" height="31" as="geometry" />
        </mxCell>
        <mxCell id="qtesGFRPvT4OYmqqLOqD-2" style="edgeStyle=orthogonalEdgeStyle;rounded=0;orthogonalLoop=1;jettySize=auto;html=1;" parent="1" source="ocCC9NBhmW7C8hYpkvTI-23" target="ocCC9NBhmW7C8hYpkvTI-29" edge="1">
          <mxGeometry relative="1" as="geometry">
            <Array as="points">
              <mxPoint x="412" y="718" />
            </Array>
          </mxGeometry>
        </mxCell>
        <mxCell id="ocCC9NBhmW7C8hYpkvTI-23" value="elites事件" style="rounded=1;whiteSpace=wrap;html=1;absoluteArcSize=1;arcSize=14;strokeWidth=2;" parent="1" vertex="1">
          <mxGeometry x="354" y="660" width="115" height="31" as="geometry" />
        </mxCell>
        <mxCell id="ocCC9NBhmW7C8hYpkvTI-29" value="结束" style="strokeWidth=2;html=1;shape=mxgraph.flowchart.terminator;whiteSpace=wrap;" parent="1" vertex="1">
          <mxGeometry x="492.5" y="700" width="100" height="36" as="geometry" />
        </mxCell>
        <mxCell id="kLJnU4twhRrT2ZxffIng-3" style="edgeStyle=orthogonalEdgeStyle;rounded=0;orthogonalLoop=1;jettySize=auto;html=1;entryX=0.5;entryY=0;entryDx=0;entryDy=0;" parent="1" source="ocCC9NBhmW7C8hYpkvTI-39" target="ocCC9NBhmW7C8hYpkvTI-22" edge="1">
          <mxGeometry relative="1" as="geometry" />
        </mxCell>
        <mxCell id="kLJnU4twhRrT2ZxffIng-4" value="&amp;nbsp;是&amp;nbsp;" style="edgeLabel;html=1;align=center;verticalAlign=middle;resizable=0;points=[];" parent="kLJnU4twhRrT2ZxffIng-3" vertex="1" connectable="0">
          <mxGeometry x="-0.2899" y="2" relative="1" as="geometry">
            <mxPoint as="offset" />
          </mxGeometry>
        </mxCell>
        <mxCell id="kLJnU4twhRrT2ZxffIng-14" style="edgeStyle=orthogonalEdgeStyle;rounded=0;orthogonalLoop=1;jettySize=auto;html=1;entryX=0;entryY=0.5;entryDx=0;entryDy=0;entryPerimeter=0;" parent="1" source="ocCC9NBhmW7C8hYpkvTI-39" target="ocCC9NBhmW7C8hYpkvTI-29" edge="1">
          <mxGeometry relative="1" as="geometry">
            <Array as="points">
              <mxPoint x="245" y="718" />
            </Array>
          </mxGeometry>
        </mxCell>
        <mxCell id="kLJnU4twhRrT2ZxffIng-15" value="否" style="edgeLabel;html=1;align=center;verticalAlign=middle;resizable=0;points=[];" parent="kLJnU4twhRrT2ZxffIng-14" vertex="1" connectable="0">
          <mxGeometry x="-0.4258" relative="1" as="geometry">
            <mxPoint as="offset" />
          </mxGeometry>
        </mxCell>
        <mxCell id="ocCC9NBhmW7C8hYpkvTI-39" value="流水是否有效" style="strokeWidth=2;html=1;shape=mxgraph.flowchart.decision;whiteSpace=wrap;" parent="1" vertex="1">
          <mxGeometry x="180" y="544" width="130" height="41" as="geometry" />
        </mxCell>
        <mxCell id="pwR67yyNOnzoJk_W2ySI-2" style="edgeStyle=orthogonalEdgeStyle;rounded=0;orthogonalLoop=1;jettySize=auto;html=1;" edge="1" parent="1" source="ocCC9NBhmW7C8hYpkvTI-40" target="pwR67yyNOnzoJk_W2ySI-1">
          <mxGeometry relative="1" as="geometry" />
        </mxCell>
        <mxCell id="ocCC9NBhmW7C8hYpkvTI-40" value="生成审核成功的流水入库" style="rounded=1;whiteSpace=wrap;html=1;absoluteArcSize=1;arcSize=14;strokeWidth=2;" parent="1" vertex="1">
          <mxGeometry x="462.5" y="450" width="160" height="41" as="geometry" />
        </mxCell>
        <mxCell id="kLJnU4twhRrT2ZxffIng-20" style="edgeStyle=orthogonalEdgeStyle;rounded=0;orthogonalLoop=1;jettySize=auto;html=1;exitX=0;exitY=0.5;exitDx=0;exitDy=0;exitPerimeter=0;" parent="1" source="kLJnU4twhRrT2ZxffIng-19" target="ocCC9NBhmW7C8hYpkvTI-11" edge="1">
          <mxGeometry relative="1" as="geometry">
            <Array as="points">
              <mxPoint x="690" y="320" />
            </Array>
          </mxGeometry>
        </mxCell>
        <mxCell id="kLJnU4twhRrT2ZxffIng-21" value="&amp;nbsp;否&amp;nbsp;" style="edgeLabel;html=1;align=center;verticalAlign=middle;resizable=0;points=[];" parent="kLJnU4twhRrT2ZxffIng-20" vertex="1" connectable="0">
          <mxGeometry x="-0.131" relative="1" as="geometry">
            <mxPoint y="18" as="offset" />
          </mxGeometry>
        </mxCell>
        <mxCell id="kLJnU4twhRrT2ZxffIng-25" style="edgeStyle=orthogonalEdgeStyle;rounded=0;orthogonalLoop=1;jettySize=auto;html=1;exitX=1;exitY=0.5;exitDx=0;exitDy=0;exitPerimeter=0;" parent="1" source="kLJnU4twhRrT2ZxffIng-19" target="kLJnU4twhRrT2ZxffIng-24" edge="1">
          <mxGeometry relative="1" as="geometry">
            <Array as="points">
              <mxPoint x="897" y="320" />
            </Array>
          </mxGeometry>
        </mxCell>
        <mxCell id="kLJnU4twhRrT2ZxffIng-26" value="是" style="edgeLabel;html=1;align=center;verticalAlign=middle;resizable=0;points=[];" parent="kLJnU4twhRrT2ZxffIng-25" vertex="1" connectable="0">
          <mxGeometry x="0.0248" y="-3" relative="1" as="geometry">
            <mxPoint x="3" y="7" as="offset" />
          </mxGeometry>
        </mxCell>
        <mxCell id="kLJnU4twhRrT2ZxffIng-19" value="是否有审核成功的流水" style="strokeWidth=2;html=1;shape=mxgraph.flowchart.decision;whiteSpace=wrap;" parent="1" vertex="1">
          <mxGeometry x="720" y="290" width="150" height="61" as="geometry" />
        </mxCell>
        <mxCell id="kLJnU4twhRrT2ZxffIng-27" style="edgeStyle=orthogonalEdgeStyle;rounded=0;orthogonalLoop=1;jettySize=auto;html=1;" parent="1" source="kLJnU4twhRrT2ZxffIng-24" target="ocCC9NBhmW7C8hYpkvTI-29" edge="1">
          <mxGeometry relative="1" as="geometry">
            <Array as="points">
              <mxPoint x="897" y="718" />
            </Array>
          </mxGeometry>
        </mxCell>
        <mxCell id="kLJnU4twhRrT2ZxffIng-24" value="修改原来的流水的状态为失败" style="rounded=1;whiteSpace=wrap;html=1;absoluteArcSize=1;arcSize=14;strokeWidth=2;" parent="1" vertex="1">
          <mxGeometry x="810" y="544" width="173" height="40" as="geometry" />
        </mxCell>
        <mxCell id="qtesGFRPvT4OYmqqLOqD-3" style="edgeStyle=orthogonalEdgeStyle;rounded=0;orthogonalLoop=1;jettySize=auto;html=1;entryX=0.5;entryY=0;entryDx=0;entryDy=0;entryPerimeter=0;" parent="1" source="qtesGFRPvT4OYmqqLOqD-1" target="ocCC9NBhmW7C8hYpkvTI-16" edge="1">
          <mxGeometry relative="1" as="geometry" />
        </mxCell>
        <mxCell id="qtesGFRPvT4OYmqqLOqD-6" value="是" style="edgeLabel;html=1;align=center;verticalAlign=middle;resizable=0;points=[];" parent="qtesGFRPvT4OYmqqLOqD-3" vertex="1" connectable="0">
          <mxGeometry x="0.2553" relative="1" as="geometry">
            <mxPoint y="-10" as="offset" />
          </mxGeometry>
        </mxCell>
        <mxCell id="qtesGFRPvT4OYmqqLOqD-10" style="edgeStyle=orthogonalEdgeStyle;rounded=0;orthogonalLoop=1;jettySize=auto;html=1;" parent="1" source="qtesGFRPvT4OYmqqLOqD-1" target="qtesGFRPvT4OYmqqLOqD-13" edge="1">
          <mxGeometry relative="1" as="geometry" />
        </mxCell>
        <mxCell id="qtesGFRPvT4OYmqqLOqD-12" value="否" style="edgeLabel;html=1;align=center;verticalAlign=middle;resizable=0;points=[];" parent="qtesGFRPvT4OYmqqLOqD-10" vertex="1" connectable="0">
          <mxGeometry x="0.2667" y="3" relative="1" as="geometry">
            <mxPoint x="25" y="-3" as="offset" />
          </mxGeometry>
        </mxCell>
        <mxCell id="qtesGFRPvT4OYmqqLOqD-1" value="是否有非成功流水" style="strokeWidth=2;html=1;shape=mxgraph.flowchart.decision;whiteSpace=wrap;" parent="1" vertex="1">
          <mxGeometry x="319" y="229.5" width="150" height="61" as="geometry" />
        </mxCell>
        <mxCell id="qtesGFRPvT4OYmqqLOqD-11" style="edgeStyle=orthogonalEdgeStyle;rounded=0;orthogonalLoop=1;jettySize=auto;html=1;entryX=0;entryY=0.5;entryDx=0;entryDy=0;entryPerimeter=0;" parent="1" source="qtesGFRPvT4OYmqqLOqD-9" target="ocCC9NBhmW7C8hYpkvTI-29" edge="1">
          <mxGeometry relative="1" as="geometry">
            <Array as="points">
              <mxPoint x="170" y="718" />
            </Array>
          </mxGeometry>
        </mxCell>
        <mxCell id="qtesGFRPvT4OYmqqLOqD-9" value="cpos调用支付&lt;br&gt;" style="rounded=1;whiteSpace=wrap;html=1;absoluteArcSize=1;arcSize=14;strokeWidth=2;" parent="1" vertex="1">
          <mxGeometry x="120" y="421" width="100" height="40" as="geometry" />
        </mxCell>
        <mxCell id="qtesGFRPvT4OYmqqLOqD-14" style="edgeStyle=orthogonalEdgeStyle;rounded=0;orthogonalLoop=1;jettySize=auto;html=1;" parent="1" source="qtesGFRPvT4OYmqqLOqD-13" target="qtesGFRPvT4OYmqqLOqD-9" edge="1">
          <mxGeometry relative="1" as="geometry" />
        </mxCell>
        <mxCell id="qtesGFRPvT4OYmqqLOqD-13" value="生成审核成功的流水入库" style="rounded=1;whiteSpace=wrap;html=1;absoluteArcSize=1;arcSize=14;strokeWidth=2;" parent="1" vertex="1">
          <mxGeometry x="120" y="320" width="160" height="41" as="geometry" />
        </mxCell>
        <mxCell id="pwR67yyNOnzoJk_W2ySI-4" style="edgeStyle=orthogonalEdgeStyle;rounded=0;orthogonalLoop=1;jettySize=auto;html=1;entryX=0.5;entryY=0;entryDx=0;entryDy=0;entryPerimeter=0;" edge="1" parent="1" source="pwR67yyNOnzoJk_W2ySI-1" target="ocCC9NBhmW7C8hYpkvTI-29">
          <mxGeometry relative="1" as="geometry" />
        </mxCell>
        <mxCell id="pwR67yyNOnzoJk_W2ySI-1" value="设置流水防重" style="rounded=1;whiteSpace=wrap;html=1;absoluteArcSize=1;arcSize=14;strokeWidth=2;" vertex="1" parent="1">
          <mxGeometry x="525" y="550" width="160" height="41" as="geometry" />
        </mxCell>
        <mxCell id="pwR67yyNOnzoJk_W2ySI-10" style="edgeStyle=orthogonalEdgeStyle;rounded=0;orthogonalLoop=1;jettySize=auto;html=1;entryX=1;entryY=0.5;entryDx=0;entryDy=0;entryPerimeter=0;" edge="1" parent="1" source="pwR67yyNOnzoJk_W2ySI-5" target="ocCC9NBhmW7C8hYpkvTI-29">
          <mxGeometry relative="1" as="geometry">
            <Array as="points">
              <mxPoint x="1000" y="180" />
              <mxPoint x="1000" y="718" />
            </Array>
          </mxGeometry>
        </mxCell>
        <mxCell id="pwR67yyNOnzoJk_W2ySI-13" value="&amp;nbsp;是&amp;nbsp;" style="edgeLabel;html=1;align=center;verticalAlign=middle;resizable=0;points=[];" vertex="1" connectable="0" parent="pwR67yyNOnzoJk_W2ySI-10">
          <mxGeometry x="-0.8451" y="-4" relative="1" as="geometry">
            <mxPoint as="offset" />
          </mxGeometry>
        </mxCell>
        <mxCell id="pwR67yyNOnzoJk_W2ySI-11" style="edgeStyle=orthogonalEdgeStyle;rounded=0;orthogonalLoop=1;jettySize=auto;html=1;entryX=0.5;entryY=0;entryDx=0;entryDy=0;entryPerimeter=0;" edge="1" parent="1" source="pwR67yyNOnzoJk_W2ySI-5" target="ocCC9NBhmW7C8hYpkvTI-8">
          <mxGeometry relative="1" as="geometry" />
        </mxCell>
        <mxCell id="pwR67yyNOnzoJk_W2ySI-12" value="否" style="edgeLabel;html=1;align=center;verticalAlign=middle;resizable=0;points=[];" vertex="1" connectable="0" parent="pwR67yyNOnzoJk_W2ySI-11">
          <mxGeometry x="-0.3859" y="2" relative="1" as="geometry">
            <mxPoint x="-7" as="offset" />
          </mxGeometry>
        </mxCell>
        <mxCell id="pwR67yyNOnzoJk_W2ySI-5" value="&lt;span&gt;流水防重命中&lt;/span&gt;" style="strokeWidth=2;html=1;shape=mxgraph.flowchart.decision;whiteSpace=wrap;" vertex="1" parent="1">
          <mxGeometry x="540" y="150" width="130" height="60" as="geometry" />
        </mxCell>
      </root>
    </mxGraphModel>
  </diagram>
</mxfile>
